<?xml version="1.0" encoding="UTF-8"?>
<!DOCTYPE svg PUBLIC "-//W3C//DTD SVG 1.1//EN" "http://www.w3.org/Graphics/SVG/1.1/DTD/svg11.dtd">
<!-- Creator: CorelDRAW 2020 (64-Bit) -->
<svg xmlns="http://www.w3.org/2000/svg" xml:space="preserve" width="20mm" height="20mm" version="1.1" style="shape-rendering:geometricPrecision; text-rendering:geometricPrecision; image-rendering:optimizeQuality; fill-rule:evenodd; clip-rule:evenodd"
viewBox="0 0 2000 2000"
 xmlns:xlink="http://www.w3.org/1999/xlink"
 xmlns:xodm="http://www.corel.com/coreldraw/odm/2003">
 <defs>
  <style type="text/css">
   <![CDATA[
    .fil0 {fill:black;fill-rule:nonzero}
   ]]>
  </style>
 </defs>
 <g id="Capa_x0020_1">
  <metadata id="CorelCorpID_0Corel-Layer"/>
  <path class="fil0" d="M1213.94 1414.14l640.59 -460.01c30.58,-18.18 49.45,-51.2 49.45,-86.82 0,-35.56 -18.87,-68.58 -49.5,-86.76l-640.54 -460.28c-15.53,-9.06 -33.07,-13.83 -50.99,-13.83 -55.44,0 -100.38,44.95 -100.38,100.39 0,0.1 0,0.15 0,0.26l0.05 179.63c-210.37,0 -841.42,0 -981.66,1121.9 350.61,-631.05 981.66,-560.93 981.66,-560.93l0 179.63c0,78.55 84.96,125.93 151.32,86.92l0 -0.1z"/>
 </g>
</svg>
