<?xml version="1.0" encoding="UTF-8"?>
<!DOCTYPE svg PUBLIC "-//W3C//DTD SVG 1.1//EN" "http://www.w3.org/Graphics/SVG/1.1/DTD/svg11.dtd">
<!-- Creator: CorelDRAW 2020 (64-Bit) -->
<svg xmlns="http://www.w3.org/2000/svg" xml:space="preserve" width="16.9332mm" height="16.9332mm" version="1.1" style="shape-rendering:geometricPrecision; text-rendering:geometricPrecision; image-rendering:optimizeQuality; fill-rule:evenodd; clip-rule:evenodd"
viewBox="0 0 1693.32 1693.32"
 xmlns:xlink="http://www.w3.org/1999/xlink"
 xmlns:xodm="http://www.corel.com/coreldraw/odm/2003">
 <defs>
  <style type="text/css">
   <![CDATA[
    .fil0 {fill:#2B2A29}
   ]]>
  </style>
 </defs>
 <g id="Capa_x0020_1">
  <metadata id="CorelCorpID_0Corel-Layer"/>
  <path class="fil0" d="M339.2 464.97l401.05 0.13c0,152.13 -5.82,296.24 -32.08,442.52 -18.9,105.3 -48.02,220.07 -103.3,310.39l-23.55 35.48c22.3,29.83 52.94,66.84 76.73,96.72 14.54,18.27 62.24,79.83 76.59,95.57 13.22,-11.02 50.93,-72.13 61,-91.05 98.35,-184.88 142.12,-384.71 161.21,-595.72 8.95,-98.93 8.29,-193.94 6.99,-293.9l388.77 -0.14 0.32 -217.43 1.53 0 -1010.82 0 -4.78 0 0.34 217.43z"/>
 </g>
</svg>
